# xmcd
#
# Track frame offsets: 
#        150
#        13805
#        27222
#        43835
#        57467
#        71105
#        84900
#        99960
#        113950
#        127557
#        140035
#        151937
#        165085
#
# Disc length: 2386 seconds
#
# Revision: 0
# Processed by: cddbd v1.5.1PL0 Copyright (c) Steve Scherf et al.
# Submitted via: ExactAudioCopy v0.95a5
#
DISCID=9f09500d
DTITLE=REBETIKA - Various - REBETIKA
DYEAR=1900
DGENRE=Greek
TTITLE0=Vadizo kai Paramilo
TTITLE1=Sinefiasmeni Kiriaki
TTITLE2=Dimitroula Mou
TTITLE3=To Bouzouki San Klaiei
TTITLE4=Efiges Kai Pou M' Afineis
TTITLE5=Apo Tin Kalosini Mou
TTITLE6=O Kapsouris
TTITLE7=Mexri Pote Mafioza Kinonia
TTITLE8=O Mellothanatos O Dolios
TTITLE9=To Diko Sou to Marazi
TTITLE10=Taksimi Minore
TTITLE11=Mana Mou Me Maxairosane
TTITLE12=Extra
EXTD=
EXTT0=
EXTT1=
EXTT2=
EXTT3=
EXTT4=
EXTT5=
EXTT6=
EXTT7=
EXTT8=
EXTT9=
EXTT10=
EXTT11=
EXTT12=
PLAYORDER=
